# xmcd CD database file
#
# Track frame offsets:
#	150
#	25871
#	45448
#	58585
#	72380
#	88897
#	111080
#	127187
#	143158
#	160255
#	172990
#	188643
#	210664
#	228664
#
# Disc length: 3364 seconds
#
# Revision: 0
# Processed by: cddbd v1.5PL3 Copyright (c) Steve Scherf et al.
# Submitted via: CDex 1.51
#
DISCID=c50d220e
DTITLE=Norah Jones - Live In New Orleans
DYEAR=2002
DGENRE=Jazz
TTITLE0=Cold, Cold Heart
TTITLE1=Nightingale
TTITLE2=One Flight Down
TTITLE3=Seven Years
TTITLE4=Feelin' The Same Way
TTITLE5=Comes Love
TTITLE6=Something Is Calling You
TTITLE7=Come Away With Me
TTITLE8=What Am I To You?
TTITLE9=Painter Song
TTITLE10=Lonestar
TTITLE11=I've Got To See You Again
TTITLE12=Bessie Smith
TTITLE13=Don't Know Why
EXTD=YEAR: 2002
EXTT0=
EXTT1=
EXTT2=
EXTT3=
EXTT4=
EXTT5=
EXTT6=
EXTT7=
EXTT8=
EXTT9=
EXTT10=
EXTT11=
EXTT12=
EXTT13=
PLAYORDER=
